<svg width="20" height="20" viewBox="0 0 20 20" fill="none" xmlns="http://www.w3.org/2000/svg">
<path id="map" d="M13.5294 19.9095L6.47058 17.4389L1.40724 19.3981C1.06034 19.5324 0.739071 19.4939 0.443442 19.2828C0.147814 19.0716 0 18.7828 0 18.4163V2.98642C0 2.75415 0.0622257 2.54563 0.186677 2.36086C0.311109 2.1761 0.485687 2.04223 0.710414 1.95927L6.47058 0L13.5294 2.4706L18.5928 0.511325C18.9397 0.37709 19.2609 0.409894 19.5566 0.609738C19.8522 0.809581 20 1.08899 20 1.44798V16.9683C20 17.2081 19.9321 17.4185 19.7964 17.5995C19.6606 17.7805 19.4766 17.9125 19.2443 17.9955L13.5294 19.9095ZM12.6471 17.7511V3.9864L7.3529 2.13571V15.9005L12.6471 17.7511ZM14.4117 17.7511L18.2353 16.4842V2.54295L14.4117 3.9864V17.7511ZM1.76468 17.3665L5.58825 15.9005V2.13571L1.76468 3.4253V17.3665Z" fill="#746B8E"/>
</svg>
