<svg width="18" height="19" viewBox="0 0 18 19" fill="none" xmlns="http://www.w3.org/2000/svg">
<path id="percent" d="M3.9375 8.28418C2.85 8.28418 1.92187 7.8998 1.15312 7.13105C0.384375 6.3623 0 5.43418 0 4.34668C0 3.25918 0.384375 2.33105 1.15312 1.5623C1.92187 0.793555 2.85 0.40918 3.9375 0.40918C5.025 0.40918 5.95312 0.793555 6.72187 1.5623C7.49062 2.33105 7.875 3.25918 7.875 4.34668C7.875 5.43418 7.49062 6.3623 6.72187 7.13105C5.95312 7.8998 5.025 8.28418 3.9375 8.28418ZM3.9375 6.03418C4.40625 6.03418 4.80469 5.87012 5.13281 5.54199C5.46094 5.21387 5.625 4.81543 5.625 4.34668C5.625 3.87793 5.46094 3.47949 5.13281 3.15137C4.80469 2.82324 4.40625 2.65918 3.9375 2.65918C3.46875 2.65918 3.07031 2.82324 2.74219 3.15137C2.41406 3.47949 2.25 3.87793 2.25 4.34668C2.25 4.81543 2.41406 5.21387 2.74219 5.54199C3.07031 5.87012 3.46875 6.03418 3.9375 6.03418ZM14.0625 18.4092C12.975 18.4092 12.0469 18.0248 11.2781 17.2561C10.5094 16.4873 10.125 15.5592 10.125 14.4717C10.125 13.3842 10.5094 12.4561 11.2781 11.6873C12.0469 10.9186 12.975 10.5342 14.0625 10.5342C15.15 10.5342 16.0781 10.9186 16.8469 11.6873C17.6156 12.4561 18 13.3842 18 14.4717C18 15.5592 17.6156 16.4873 16.8469 17.2561C16.0781 18.0248 15.15 18.4092 14.0625 18.4092ZM14.0625 16.1592C14.5312 16.1592 14.9297 15.9951 15.2578 15.667C15.5859 15.3389 15.75 14.9404 15.75 14.4717C15.75 14.0029 15.5859 13.6045 15.2578 13.2764C14.9297 12.9482 14.5312 12.7842 14.0625 12.7842C13.5938 12.7842 13.1953 12.9482 12.8672 13.2764C12.5391 13.6045 12.375 14.0029 12.375 14.4717C12.375 14.9404 12.5391 15.3389 12.8672 15.667C13.1953 15.9951 13.5938 16.1592 14.0625 16.1592ZM1.575 18.4092L0 16.8342L16.425 0.40918L18 1.98418L1.575 18.4092Z" fill="#746B8E"/>
</svg>
