<svg width="21" height="17" viewBox="0 0 21 17" fill="none" xmlns="http://www.w3.org/2000/svg">
<path id="speed" d="M8.95655 12.1983C9.34905 12.5908 9.85455 12.7772 10.473 12.7573C11.0915 12.7375 11.5453 12.5143 11.8344 12.0878L17.8323 3.3991L9.12233 9.37579C8.68875 9.66485 8.4546 10.1094 8.41988 10.7095C8.38518 11.3096 8.56407 11.8058 8.95655 12.1983ZM10.4996 0.210938C11.551 0.210938 12.5361 0.348742 13.455 0.624348C14.3739 0.899936 15.2613 1.31687 16.1171 1.87516L14.5592 2.8826C13.9301 2.54819 13.2779 2.29561 12.6027 2.12486C11.9276 1.95412 11.2265 1.86875 10.4996 1.86875C8.04969 1.86875 5.96358 2.7299 4.24127 4.45221C2.51896 6.17452 1.65781 8.26063 1.65781 10.7105C1.65781 11.4842 1.76373 12.2487 1.97556 13.0039C2.1874 13.7591 2.48673 14.4683 2.87356 15.1314H18.1257C18.5493 14.4315 18.8579 13.7039 19.0513 12.9486C19.2447 12.1934 19.3414 11.4105 19.3414 10.6C19.3414 9.93689 19.2596 9.2656 19.0959 8.58617C18.9323 7.90673 18.6797 7.26166 18.3382 6.65094L19.3456 5.09305C19.8912 5.98716 20.3003 6.88161 20.5731 7.7764C20.8458 8.6712 20.9879 9.60108 20.9992 10.566C21.0105 11.5664 20.8979 12.5119 20.6613 13.4024C20.4246 14.293 20.0683 15.164 19.5922 16.0156C19.4462 16.2551 19.2408 16.4439 18.9758 16.582C18.7109 16.7202 18.4275 16.7893 18.1257 16.7893H2.87356C2.57883 16.7893 2.30076 16.7184 2.03933 16.5767C1.77791 16.435 1.56714 16.2338 1.40703 15.9731C0.984783 15.2363 0.644715 14.4329 0.386829 13.5629C0.128943 12.6929 0 11.7421 0 10.7105C0 9.26668 0.273903 7.90936 0.821707 6.6386C1.36951 5.36783 2.11731 4.25481 3.06509 3.29954C4.01288 2.34428 5.12724 1.5907 6.40818 1.03881C7.6891 0.486895 9.05291 0.210938 10.4996 0.210938Z" fill="#746B8E"/>
</svg>
