<svg width="14" height="15" viewBox="0 0 14 15" fill="none" xmlns="http://www.w3.org/2000/svg">
<path id="&#208;&#184;&#208;&#186;&#208;&#190;&#208;&#189;&#208;&#186;&#208;&#176; &#208;&#191;&#208;&#190;&#208;&#184;&#209;&#129;&#208;&#186;&#208;&#176;" d="M12.9375 14.5L7.95833 9.52083C7.54167 9.82639 7.08478 10.066 6.58767 10.2396C6.09056 10.4132 5.56158 10.5 5.00073 10.5C3.61135 10.5 2.43056 10.0139 1.45833 9.04167C0.486111 8.06944 0 6.88889 0 5.5C0 4.11111 0.486111 2.93056 1.45833 1.95833C2.43056 0.986111 3.61111 0.5 5 0.5C6.38889 0.5 7.56944 0.986111 8.54167 1.95833C9.51389 2.93056 10 4.11135 10 5.50073C10 6.06158 9.9132 6.59056 9.73958 7.08767C9.56597 7.58478 9.32639 8.04167 9.02083 8.45833L14 13.4375L12.9375 14.5ZM5 9C5.97222 9 6.79861 8.65972 7.47917 7.97917C8.15972 7.29861 8.5 6.47222 8.5 5.5C8.5 4.52778 8.15972 3.70139 7.47917 3.02083C6.79861 2.34028 5.97222 2 5 2C4.02778 2 3.20139 2.34028 2.52083 3.02083C1.84028 3.70139 1.5 4.52778 1.5 5.5C1.5 6.47222 1.84028 7.29861 2.52083 7.97917C3.20139 8.65972 4.02778 9 5 9Z" fill="#746B8E"/>
</svg>
