<svg version="1.1" xmlns="http://www.w3.org/2000/svg" xmlns:xlink="http://www.w3.org/1999/xlink" width="22" height="22" viewBox="0,0,255.99599,255.99599"><g fill="#352958" fill-rule="nonzero" stroke="none" stroke-width="1" stroke-linecap="butt" stroke-linejoin="miter" stroke-miterlimit="10" stroke-dasharray="" stroke-dashoffset="0" font-family="none" font-weight="none" font-size="none" text-anchor="none" style="mix-blend-mode: normal"><g transform="translate(-0.00201,256.61333) scale(0.26667,0.26667)"><path d="M197.694,-100.001c-15.686,0 -29.223,-5.694 -40.611,-17.082c-11.388,-11.388 -17.082,-24.925 -17.082,-40.611v-579.227c0,-15.686 5.694,-29.223 17.082,-40.611c11.388,-11.388 24.925,-17.082 40.611,-17.082h73.846v-70h50.384v70h317.691v-70h49.229v70h73.462c15.686,0 29.223,5.694 40.611,17.082c11.388,11.388 17.082,24.925 17.082,40.611v579.227c0,15.686 -5.694,29.223 -17.082,40.611c-11.388,11.388 -24.925,17.082 -40.611,17.082zM197.694,-145.385h564.612c3.07733,0 5.89833,-1.282 8.463,-3.846c2.564,-2.56467 3.846,-5.38567 3.846,-8.463v-397.305h-589.23v397.305c0,3.07733 1.282,5.89833 3.846,8.463c2.56467,2.564 5.38567,3.846 8.463,3.846zM185.385,-600.382h589.23v-136.539c0,-3.07733 -1.282,-5.89833 -3.846,-8.463c-2.56467,-2.564 -5.38567,-3.846 -8.463,-3.846h-564.612c-3.07733,0 -5.89833,1.282 -8.463,3.846c-2.564,2.56467 -3.846,5.38567 -3.846,8.463zM185.385,-600.382v-148.848z"></path></g></g></svg>